<svg xmlns="http://www.w3.org/2000/svg" width="760" height="390" viewBox="0 0 760 390">
<rect width="100%" height="100%" fill="white"/>
<g font-family="sans-serif" font-size="13" fill="#172c39">
<text x="65" y="23">Actual evaluation loss: fixed windows, CPU, no dropout</text>
<line x1="65" y1="330.00" x2="725" y2="330.00" stroke="#ddd"/>
<text x="10" y="334.00">2.233</text>
<line x1="65" y1="258.75" x2="725" y2="258.75" stroke="#ddd"/>
<text x="10" y="262.75">2.552</text>
<line x1="65" y1="187.50" x2="725" y2="187.50" stroke="#ddd"/>
<text x="10" y="191.50">2.871</text>
<line x1="65" y1="116.25" x2="725" y2="116.25" stroke="#ddd"/>
<text x="10" y="120.25">3.190</text>
<line x1="65" y1="45.00" x2="725" y2="45.00" stroke="#ddd"/>
<text x="10" y="49.00">3.509</text>
<polyline points="65.00,69.96 131.00,157.07 197.00,199.63 263.00,227.67 329.00,245.15 395.00,259.95 461.00,273.36 527.00,284.13 593.00,290.44 659.00,298.91 725.00,306.25" fill="none" stroke="#087e8b" stroke-width="2"/>
<text x="85" y="380" fill="#087e8b">training documents</text>
<polyline points="65.00,68.75 131.00,153.04 197.00,190.79 263.00,215.70 329.00,228.92 395.00,240.73 461.00,249.57 527.00,253.45 593.00,254.01 659.00,258.13 725.00,260.19" fill="none" stroke="#b54336" stroke-width="2"/>
<text x="280" y="380" fill="#b54336">validation documents</text>
<text x="65" y="350">0</text><text x="680" y="350">200</text>
<text x="290" y="350">completed parameter updates</text>
</g></svg>